<?xml version="1.0" encoding="UTF-8"?>
<!DOCTYPE svg  PUBLIC '-//W3C//DTD SVG 1.1//EN'  'http://www.w3.org/Graphics/SVG/1.1/DTD/svg11.dtd'>
<svg width="272.13" height="48.189" enable-background="new 0 0 272.126 48.189" version="1.1" viewBox="0 0 272.126 48.189" xml:space="preserve" xmlns="http://www.w3.org/2000/svg">
	<style>
		.a { fill:#fff; }
	</style>
	<rect x="-23.662" y="-24" width="318.09" height="96" fill="none"/>
	<g fill="#fff">
		<polygon points="0.482 0.138 0.482 47.861 24.621 47.861 24.621 22.78 6.262 0.138"/>
		<polygon points="51.961 47.861 51.961 0.138 27.821 0.138 27.821 25.22 46.178 47.861"/>
	</g>
	<path class="a" d="M71.214,14.053l10.913,13.633V14.053h2.185v17.806h-1.525L71.849,18.275v13.584h-2.188V14.053H71.214z"/>
	<path class="a" d="m106.96 23.007c-0.026 4.655-2.924 9.207-9.03 9.207-6.104 0-9.054-4.529-9.054-9.207 0-5.165 3.459-9.261 9.081-9.261 6.029 0.028 9.029 4.555 9.003 9.261zm-9.002-7.223c-4.528 0-6.868 3.33-6.868 7.223 0 3.612 2.186 7.12 6.868 7.12 4.679 0 6.79-3.609 6.79-7.12 0.025-3.614-2.137-7.172-6.79-7.223z"/>
	<path class="a" d="m118.42 25.451h-4.667v6.409h-2.214v-17.807h8.089c4.019 0 6.029 2.798 6.029 5.698 0.026 2.696-1.523 5.164-4.627 5.464l5.388 6.644h-2.797l-5.201-6.408zm5.024-5.65c0.026-1.779-1.248-3.764-3.816-3.764h-5.875v7.429h5.773c2.671 0 3.918-1.654 3.918-3.665z"/>
	<path class="a" d="m144.35 17.842c-1.398-1.346-3.459-2.083-5.265-2.083-4.579 0-7.071 3.432-7.071 7.35 0 3.612 2.29 6.994 7.123 6.994 1.678 0 3.383-0.534 4.858-1.807v-4.223h-5.546v-1.959h7.557v7.046c-1.808 1.934-4.021 3.03-6.897 3.03-6.333 0-9.284-4.3-9.284-9.082-0.025-5.317 3.461-9.413 9.259-9.413 2.367 0 4.73 0.89 6.539 2.672l-1.273 1.475z"/>
	<path class="a" d="M151.579,14.053h12.513v2.035h-10.326v5.572h9.893v2.06h-9.893v6.028H164.5v2.111h-12.921V14.053z"/>
	<path class="a" d="m175.62 15.657c-2.264 0-4.681 0.889-4.681 3.052 0 1.934 2.213 2.492 4.833 2.924 3.561 0.561 7.072 1.273 7.072 5.29-0.028 3.995-3.84 5.292-7.251 5.292-3.153 0-6.156-1.145-7.527-4.121l1.829-1.067c1.145 2.111 3.536 3.127 5.724 3.127 2.162 0 5.034-0.686 5.034-3.307 0.025-2.211-2.467-2.847-5.135-3.255-3.434-0.535-6.768-1.323-6.768-4.934-0.05-3.714 3.739-4.986 6.818-4.986 2.646 0 5.163 0.535 6.742 3.229l-1.681 1.045c-0.965-1.553-3.025-2.263-5.009-2.289z"/>
	<path class="a" d="m205.38 14.053c3.231 0 5.977 1.604 5.977 4.986 0 1.628-0.941 3.001-2.646 3.665 2.162 0.609 3.206 2.593 3.206 4.244 0 3.79-3.179 4.912-6.537 4.912h-7.784v-17.807h7.784zm-5.571 7.657h5.673c2.136 0 3.687-0.789 3.687-2.644 0-1.985-1.601-3.002-3.789-3.002h-5.571v5.646zm0 8.063h5.571c1.857 0 4.325-0.484 4.325-2.899-0.026-2.239-2.291-3.154-4.223-3.154h-5.673v6.053z"/>
	<path class="a" d="m225.04 14.053l7.987 17.806h-2.391l-1.754-3.919h-10.175l-1.729 3.919h-2.418l7.987-17.806h2.493zm-1.244 2.24l-4.226 9.613h8.445l-4.219-9.613z"/>
	<path class="a" d="M237.99,14.053l10.911,13.633V14.053h2.19v17.806h-1.527l-10.939-13.584v13.584h-2.186V14.053H237.99z"/>
	<path class="a" d="m256.68 14.053h2.187v7.86l7.886-7.86h2.772v0.129l-8.544 8.445 9.309 9.079v0.153h-2.747l-8.676-8.368v8.368h-2.187v-17.806z"/>
</svg>
